# xmcd
#
# Track frame offsets:
#	150
#	48220
#	77581
#	101225
#	230352
#	275744
#
# Disc length: 4133 seconds
#
# Revision: 1
# Processed by: cddbd v1.5.2PL0 Copyright (c) Steve Scherf et al.
# Submitted via: audiograbber 1.83.01
#
DISCID=48102306
DTITLE=Grateful Dead - 73-12-08 Cameron Indoor Stadium, Duke University, Durham
DTITLE=NC
DYEAR=1900
DGENRE=
TTITLE0=He's Gone
TTITLE1=Truckin
TTITLE2=Nobody's Fault But Mine
TTITLE3=Jam > The Other One
TTITLE4=Wharf Rat
TTITLE5=Stella Blue
EXTD=
EXTT0=
EXTT1=
EXTT2=
EXTT3=
EXTT4=
EXTT5=
PLAYORDER=
